# xmcd
# 
# Track frame offsets:
#     182
#     11135
#     21725
#     32435
#     44247
#     54165
#     61835
#     72565
#     85132
#     96777
#     111845
#     124397
#     134155
#     146780
#     155705
#     170377
#     181667
#     193717
#     205655
#     214612
# 
# Disc length: 2963
# 
# Revision: 1
# Processed by: cddbd v1.5.2PL0 Copyright (c) Steve Scherf et al.
# Submitted via: fre:ac v1.0.27
# 
DISCID=2e0b9114
DTITLE=Various Artist - Country Music 40 Hits [CD 2/2)
DYEAR=1990
DGENRE=Country
TTITLE0=Johnny Cash - Oh Lonsome Me
TTITLE1=Donna Fargo - All That Im Keeping Me Alive
TTITLE2=Waylon Jennings - Dream Baby
TTITLE3=Willie Nelson - I Hope So
TTITLE4=Conway Twitty - Where I Stand
TTITLE5=Georges Jones - Jambalaja
TTITLE6=Dolly Parton - Honky Tonk Angels
TTITLE7=Stonewall Jackson - Old Chunk Of Coal
TTITLE8=Johnny Cash - I Want You Back Again
TTITLE9=Kenny Rogers - For The Good Times
TTITLE10=Johnny Paycheck - The Happy Hours
TTITLE11=Patsy Cline - I´m Blue Again
TTITLE12=Ray Pillow - Julie Loved Boston
TTITLE13=Georges Jones - Jenny
TTITLE14=Willie Nelson - And So Will You My Love
TTITLE15=Conway Twitty - Turn The Other Cheek
TTITLE16=Hoyt Axton - After Your Gone
TTITLE17=Dolly Parton - Two Little Orphans
TTITLE18=Johnny Cash - Two Timin Woman
TTITLE19=Faron Young - Your Cheatin Heart
EXTD=
EXTT0=
EXTT1=
EXTT2=
EXTT3=
EXTT4=
EXTT5=
EXTT6=
EXTT7=
EXTT8=
EXTT9=
EXTT10=
EXTT11=
EXTT12=
EXTT13=
EXTT14=
EXTT15=
EXTT16=
EXTT17=
EXTT18=
EXTT19=
PLAYORDER=
